<svg xmlns="http://www.w3.org/2000/svg" width="100" height="100" viewBox="0 0 26.458 26.458" xmlns:v="https://vecta.io/nano"><defs><clipPath id="A"><path fill="#fff" d="M0 0h26.458v26.458H0z" stroke-width=".265"/></clipPath></defs><path clip-path="url(#A)" d="M.827 1.847A.83.83 0 0 0 0 2.674v.892a.83.83 0 0 0 .827.827h.571v6.429 6.74 6.74a.31.31 0 0 0 .31.31H24.75a.31.31 0 0 0 .31-.31v-6.74-6.74-6.429h.571a.83.83 0 0 0 .827-.827v-.892a.83.83 0 0 0-.827-.827H.827zm0 .62h24.805c.114 0 .207.093.207.207v.892c0 .114-.093.207-.207.207h-.881H1.708.827c-.114 0-.207-.093-.207-.207v-.892c0-.114.093-.207.207-.207zm1.191 1.926H24.44v6.119H2.018V4.393zm10.631 2.749a.31.31 0 0 0 0 .62h1.16a.31.31 0 1 0 0-.62h-1.16zm-10.631 3.99H24.44v6.12H2.018v-6.12zm10.631 2.75a.31.31 0 1 0 0 .62h1.16a.31.31 0 1 0 0-.62h-1.16zm-10.631 3.99H24.44v6.12H2.018v-6.12zm10.631 2.75a.31.31 0 1 0 0 .62h1.16a.31.31 0 1 0 0-.62h-1.16z"/></svg>