<svg xmlns="http://www.w3.org/2000/svg" width="24" height="24" viewBox="0 0 6.35 6.35" xmlns:v="https://vecta.io/nano"><path d="M2.117.331c-.11 0-.198.089-.198.198V.86h-.595a.73.73 0 0 0-.728.728v1.058 2.646a.73.73 0 0 0 .728.728h3.704a.73.73 0 0 0 .728-.728V2.646 1.588A.73.73 0 0 0 5.027.86h-.595V.529c0-.11-.089-.198-.198-.198s-.198.089-.198.198V.86h-1.72V.529c0-.11-.089-.198-.198-.198zm-.794.926h.595v.331c0 .11.089.198.198.198s.198-.089.198-.198v-.331h1.72v.331c0 .11.089.198.198.198s.198-.089.198-.198v-.331h.595a.33.33 0 0 1 .331.331v.86H.992v-.86a.33.33 0 0 1 .331-.331zM.992 2.844h4.366v2.447a.33.33 0 0 1-.331.331H1.323a.33.33 0 0 1-.331-.331z"/></svg>