<svg xmlns="http://www.w3.org/2000/svg" width="24" height="24" viewBox="0 0 6.35 6.35" xmlns:v="https://vecta.io/nano"><path d="M3.468.397C2.125.854.991 1.786.529 3.175.986 4.548 2.109 5.491 3.468 5.953c1.209-.94 1.868-1.696 2.353-2.778a5.42 5.42 0 0 1-1.553-1.444c-.756.354-1.414.767-1.997 1.429.209.301.557.581.838.812.409-.304.721-.599.923-.853.127.156.27.26.406.347-.352.604-.747.935-1.234 1.252-.732-.391-1.32-1.068-1.606-1.64.536-.892 1.377-1.494 2.332-1.83C3.775.974 3.572.72 3.468.397z"/></svg>