<svg xmlns="http://www.w3.org/2000/svg" width="24" height="24" viewBox="0 0 6.35 6.35" xmlns:v="https://vecta.io/nano"><path d="M3.175.066a2.58 2.58 0 0 0-2.58 2.58c0 1.006.642 1.914 1.245 2.551a8.24 8.24 0 0 0 .839.767l.277.211.079.056.021.015.006.004.002.002h.001c.067.044.153.045.22.001l-.11-.165.111.165h.001l.002-.002.006-.004.021-.015.079-.056.277-.211c.228-.182.534-.444.839-.767.603-.637 1.245-1.545 1.245-2.551a2.58 2.58 0 0 0-2.58-2.58zm0 .397c.579 0 1.134.23 1.544.639s.639.965.639 1.544c0 .846-.549 1.658-1.136 2.278-.29.306-.58.556-.798.73l-.249.189-.249-.189c-.218-.174-.508-.424-.798-.73C1.541 4.304.992 3.492.992 2.646c0-.579.23-1.134.639-1.544S2.596.463 3.175.463zm0 1.191a.99.99 0 1 0 0 1.984.99.99 0 1 0 0-1.984zm-.016.397c.344 0 .611.267.611.595s-.267.595-.595.595-.595-.267-.595-.595c0-.324.258-.587.58-.595z"/></svg>