<svg xmlns="http://www.w3.org/2000/svg" width="100" height="100" viewBox="0 0 26.458 26.458" xmlns:v="https://vecta.io/nano"><defs><clipPath id="A"><path fill="#fff" d="M0 0h26.458v26.458H0z" stroke-width=".265"/></clipPath></defs><path clip-path="url(#A)" d="M4.56 0a.31.31 0 0 0-.31.31v18.296 3.771 3.771c0 .021.002.042.006.063a.31.31 0 0 0 .018.058c.008.019.018.036.029.052s.024.032.038.046.029.027.046.038a.31.31 0 0 0 .053.028c.019.008.038.014.058.018s.041.006.063.006h8.669 8.669a.31.31 0 0 0 .31-.31V.31a.31.31 0 0 0-.31-.31h-8.669H4.56zm.31.62h8.049v17.676H4.87V.62zm8.669 0h8.049v25.218h-8.049v-3.461-3.771V.62zm-2.146 8.148a.31.31 0 0 0-.302.31v.759a.31.31 0 1 0 .62 0v-.759a.31.31 0 0 0-.31-.31zm3.663 3.771a.31.31 0 0 0-.31.31v.76a.31.31 0 1 0 .62 0v-.76a.31.31 0 0 0-.31-.31zM4.87 18.916h8.049v3.151H4.87v-3.151zm3.588 1.266a.31.31 0 1 0 0 .62h.873a.31.31 0 1 0 0-.62h-.873zM4.87 22.688h8.049v3.151H4.87v-3.151zm3.588 1.265a.31.31 0 1 0 0 .62h.873a.31.31 0 1 0 0-.62h-.873z"/></svg>