<svg xmlns="http://www.w3.org/2000/svg" width="100" height="100" viewBox="0 0 26.458 26.458" xmlns:v="https://vecta.io/nano"><defs><clipPath id="A"><path fill="#fff" d="M-178.747 5.759h26.458v26.458h-26.458z" stroke-width=".265"/></clipPath></defs><path clip-path="url(#A)" d="M-167.584 6.779a.31.31 0 0 0-.31.31 3.88 3.88 0 0 1-1.499 3.075l-.238.187c-.158.124-.251.314-.251.515l.001.033a.66.66 0 0 0-.653.659v.89a.66.66 0 0 0 .659.66h8.714a.66.66 0 0 0 .66-.66v-.89a.66.66 0 0 0-.654-.659c.01-.205-.076-.412-.25-.548l-.238-.187a3.88 3.88 0 0 1-1.499-3.075.31.31 0 0 0-.31-.31zm11.53.19a.31.31 0 0 0-.31.31v1.246l-.544-.544c-.127-.124-.323-.122-.443 0a.31.31 0 0 0 .005.438l.544.544h-.655a.31.31 0 0 0-.263.145 2 2 0 0 0-.306 1.064c0 .535.211 1.022.553 1.381h-1.019c-.429 0-.777.348-.777.777a.78.78 0 0 0 .777.777h4.934c.429 0 .777-.348.777-.777s-.348-.777-.777-.777h-1.019c.618-.647.743-1.654.246-2.446a.31.31 0 0 0-.263-.145h-.713l.544-.544a.31.31 0 0 0-.438-.438l-.544.544V7.279a.31.31 0 0 0-.31-.31zm-11.23.43h3.533c.084 1.281.712 2.465 1.726 3.254l.238.187c.008.006.013.016.013.026 0 .018-.015.033-.033.033h-7.421c-.01 0-.02-.005-.026-.013-.011-.014-.008-.035.006-.047l.238-.187c1.014-.788 1.642-1.972 1.727-3.254zm-9.995 2.023a.31.31 0 0 0-.013.62v.446a.31.31 0 0 0 0 .62v.446h-.184c-.429 0-.777.348-.777.777a.78.78 0 0 0 .777.777h4.934c.429 0 .777-.348.777-.777s-.348-.777-.777-.777h-.185v-.446a.31.31 0 0 0 0-.62v-.446a.31.31 0 0 0-.013-.62h-1.856a.31.31 0 0 0-.013.62v.446a.31.31 0 0 0 0 .62v.446h-.802v-.446a.31.31 0 0 0 0-.62v-.446a.31.31 0 0 0-.013-.62zm20.004.161h1.205 1.293a1.38 1.38 0 0 1-1.838 1.838 1.38 1.38 0 0 1-.661-1.838zm-19.397.459h.641v.445h-.641zm2.683 0h.641v.445h-.641zm-2.683 1.066h.641v.446h-.641zm2.683 0h.641v.446h-.641zm4.114.411h8.714c.022 0 .04.018.04.039v.89a.04.04 0 0 1-.04.04h-8.714c-.022 0-.039-.018-.039-.04v-.89c0-.022.018-.039.039-.039zm-7.602.655h4.934c.087 0 .157.07.157.157s-.07.157-.157.157h-4.934c-.087 0-.157-.07-.157-.157s.07-.157.157-.157zm18.984 0h4.934c.087 0 .157.07.157.157s-.07.157-.157.157h-4.934c-.087 0-.157-.07-.157-.157s.071-.157.157-.157zm1.954 1.494c-.053.001-.106.008-.16.02-.429.098-.697.525-.598.954l.406 1.77a1.1 1.1 0 0 0-.362.278c-.236.275-.34.638-.286.996a.31.31 0 0 0 .306.266h1.425a.31.31 0 0 0 .307-.266 1.25 1.25 0 0 0-.287-.996 1.1 1.1 0 0 0-.362-.278l.406-1.77c.027-.117.027-.239 0-.356-.086-.375-.424-.627-.794-.618zm2.23 0c-.053.001-.106.008-.16.02-.429.098-.697.525-.598.954l.409 1.786c-.319.17-.536.557-.536 1.018 0 .623.397 1.111.903 1.111s.903-.488.903-1.111c0-.461-.218-.848-.536-1.018l.409-1.786c.027-.117.027-.239 0-.356-.086-.375-.424-.627-.794-.618zm-2.213.62h.001c.013 0 .026.002.039.005.095.022.154.116.132.211l-.172.749-.172-.749c-.003-.013-.004-.026-.004-.039 0-.097.079-.176.176-.176zm2.23 0h.001c.013 0 .026.002.039.005.095.022.154.116.132.211l-.172.749-.172-.749c-.003-.013-.004-.026-.004-.039 0-.097.079-.176.176-.176zm-9.121.092a.88.88 0 0 0-.847 1.084c-.591.156-1.09.473-1.39.902l-.019.027-.012.022-.003.005-.011.028a.3.3 0 0 0-.015.059h0c-.002.01-.003.02-.003.03l-.001.253h-.381a.31.31 0 0 0-.31.31.31.31 0 0 0 .31.31h.387a1.55 1.55 0 0 0 .492 1.01.31.31 0 0 0-.018.105v.459h-.573v-.459a.31.31 0 0 0-.31-.31h-.723a.31.31 0 1 0 0 .62h.413v.149h-.85v-.459a.31.31 0 1 0-.62 0v.459h-.85v-.149h.413a.31.31 0 1 0 0-.62h-.723a.31.31 0 0 0-.311.31v.459h-.86-.996a1.07 1.07 0 0 0 .1-.452v-.792c.261-.059.457-.292.457-.571v-.322c0-.323-.262-.585-.585-.585h-2.471c-.323 0-.585.262-.585.585v.322c0 .279.196.512.457.571v.792a1.07 1.07 0 0 0 .1.452h-1.01v-3.02a.31.31 0 0 0-.31-.31h-1.309-1.309a.31.31 0 0 0-.31.31v3.02h-.439a.31.31 0 0 0-.31.31v3.056 8.535a.31.31 0 0 0 .31.31h4.106 4.107 9.413 2.442 5.771a.31.31 0 0 0 .31-.31v-5.796-5.796a.31.31 0 0 0-.31-.31h-5.208v-1.872-.953a.31.31 0 0 0-.31-.31h-1.597a.31.31 0 0 0-.31.31v.953 1.872h-.788-.86v-.459c0-.011 0-.022-.002-.032v-.001c.323-.26.54-.646.576-1.083h.286a.31.31 0 0 0 .31-.31.31.31 0 0 0-.31-.31h-.281v-.237l-.003-.032-.008-.046-.004-.015-.011-.028-.006-.014-.024-.041h-.001c-.306-.439-.805-.756-1.397-.913a.88.88 0 0 0-.867-1.084zm.001.62a.26.26 0 0 1 .249.363l-.24-.009-.24.009a.26.26 0 0 1 .231-.363zm.009.974a2.66 2.66 0 0 1 .325.02l.029.004c.279.037.554.119.813.245h-2.333c.368-.179.768-.269 1.167-.269zm-13.976.3h.689v2.71h-.689zm1.309 0h.689v2.71h-.689zm16.665.195h.976v.333h-.976zm-5.687.394h3.379v.221.032.166c-.001.515-.418.933-.933.933h-1.512c-.515-.001-.933-.418-.933-.933zm-8.595.02h2.402v.253h-2.402zm17.138.066h.001l.027.001.027-.001h.001c.077.011.167.066.237.147.059.068.101.149.125.236h-.779c.024-.087.067-.168.126-.236.07-.081.16-.136.237-.147zm2.258.007c.134 0 .283.209.283.49s-.149.49-.283.49-.283-.21-.283-.49.149-.49.283-.49zm-5.114.467h.976v1.562h-.976zm-13.825.333h1.488v.777c0 .249-.202.451-.452.452h-.585c-.249 0-.451-.202-.452-.452zm9.042 1.079h.029.395v.149h-.85v-.149h.413zm1.045.001h.497.353v.149h-.85zm-14.985.769h7.593v2.436h-3.797-3.796zm8.213 0h8.793v2.436h-8.793zm9.413 0h1.822v5.485 5.486h-1.822V29.56v-7.209zm2.442 0h5.151v5.175h-5.151zm-10.095.213c-.543.014-.979.458-.979 1.005 0 .555.45 1.005 1.005 1.005s1.005-.45 1.005-1.005-.45-1.005-1.005-1.005c-.009 0-.017 0-.026 0zm2.611 0c-.543.014-.979.458-.979 1.005 0 .555.45 1.005 1.005 1.005s1.004-.45 1.005-1.005-.45-1.005-1.005-1.005c-.009 0-.017 0-.026 0zm2.611 0c-.543.014-.979.458-.979 1.005 0 .555.45 1.005 1.005 1.005s1.004-.45 1.005-1.005-.45-1.005-1.005-1.005c-.009 0-.017 0-.026 0zm-12.141.296a.31.31 0 1 0 0 .62h1.487a.31.31 0 1 0 0-.62zm15.199 0a.31.31 0 0 0-.302.31.31.31 0 0 0 .31.31h.556a.31.31 0 1 0 0-.62h-.556zm3.648 0a.31.31 0 1 0 0 .62h1.487a.31.31 0 1 0 0-.62zm-11.901.325c.212 0 .385.172.385.384s-.173.385-.385.385-.384-.173-.384-.385.172-.384.384-.384zm2.591 0c.232 0 .404.172.404.384s-.172.384-.384.384-.384-.172-.384-.384c0-.206.162-.374.365-.384zm2.611 0c.232 0 .404.172.404.384s-.172.384-.384.384-.385-.172-.385-.384c0-.206.162-.374.365-.384zm-15.2 2.223h3.486v7.915h-3.486zm4.106 0h3.487v6.898h0v1.016h-3.487zm4.107 0h8.793v6.588h-8.793zm1.51.355a.73.73 0 0 0-.729.729.73.73 0 0 0 .695.729v4.097a.31.31 0 0 0 .31.31h5.221a.31.31 0 0 0 .31-.31v-4.097a.73.73 0 0 0 .695-.729.73.73 0 0 0-.73-.729zm0 .62h5.772.001c.06 0 .109.049.109.109a.11.11 0 0 1-.11.109h-5.772c-.06 0-.109-.049-.109-.109s.049-.109.109-.109zm.585.838h4.601v3.786h-4.601zm9.759.927h5.151v5.176h-5.151zm-17.252.392a.31.31 0 0 0-.31.31v1.032a.31.31 0 1 0 .62 0v-1.032a.31.31 0 0 0-.31-.31zm1.961 0a.31.31 0 0 0-.31.31v1.032a.31.31 0 1 0 .62 0v-1.032a.31.31 0 0 0-.31-.31zm17.122.117a.31.31 0 1 0 0 .62h1.487a.31.31 0 1 0 0-.62zm-13.686 3.96h8.793v.706h-8.793z" transform="translate(178.747 -5.759)"/></svg>