<svg xmlns="http://www.w3.org/2000/svg" width="40" height="40" viewBox="0 0 10.583 10.583" xmlns:v="https://vecta.io/nano"><path d="M5.291 2.47l-1.163.017c-.3.014-.506.061-.685.131a1.38 1.38 0 0 0-.5.326c-.157.157-.254.314-.326.5-.07.18-.117.385-.131.685L2.47 5.292l.017 1.163c.014.3.061.506.131.685a1.38 1.38 0 0 0 .326.5 1.38 1.38 0 0 0 .5.326c.18.07.385.117.685.131l1.164.017 1.163-.017c.3-.014.506-.061.685-.131a1.38 1.38 0 0 0 .5-.326c.157-.157.254-.314.326-.5.069-.18.117-.385.131-.685l.017-1.163-.017-1.164a2.09 2.09 0 0 0-.131-.685c-.072-.186-.169-.343-.326-.5a1.38 1.38 0 0 0-.5-.326 2.08 2.08 0 0 0-.686-.131L5.291 2.47zm-.252.507v.001h.159.095l1.14.016c.275.013.425.059.524.097.132.051.226.113.325.211s.16.193.211.325a1.56 1.56 0 0 1 .097.524l.017 1.14-.017 1.14c-.013.275-.059.425-.097.524a.87.87 0 0 1-.211.324c-.099.099-.193.16-.325.211-.099.039-.249.085-.524.097l-1.14.017a19.61 19.61 0 0 1-1.14-.017c-.275-.013-.424-.059-.524-.098-.132-.051-.226-.112-.325-.211s-.16-.193-.211-.325a1.56 1.56 0 0 1-.097-.524l-.017-1.14.017-1.14c.013-.275.059-.425.097-.524.051-.132.112-.226.211-.325a.88.88 0 0 1 .325-.211 1.56 1.56 0 0 1 .524-.097l.887-.016zm1.76.469v.001a.34.34 0 0 0-.339.338.34.34 0 0 0 .339.338.34.34 0 0 0 .338-.338.34.34 0 0 0-.338-.339zm-1.507.396a1.45 1.45 0 0 0-1.449 1.45 1.45 1.45 0 0 0 1.45 1.449 1.45 1.45 0 0 0 1.449-1.449 1.45 1.45 0 0 0-1.45-1.45zm.001.509a.94.94 0 1 1 0 1.882.94.94 0 1 1 0-1.882z"/></svg>