<svg xmlns="http://www.w3.org/2000/svg" width="100" height="100" viewBox="0 0 26.458 26.458" xmlns:v="https://vecta.io/nano"><defs><clipPath id="A"><path fill="#fff" d="M0 0h26.458v26.458H0z" stroke-width=".265"/></clipPath></defs><path clip-path="url(#A)" d="M7.554 2.237a.31.31 0 0 0-.31.31v7.366a.31.31 0 0 0 .31.31h11.351a.31.31 0 0 0 .31-.31V2.547a.31.31 0 0 0-.31-.31H7.554zm.31.62h10.731v6.746H7.864V2.857zm.723.413a.31.31 0 0 0-.31.31V8.88a.31.31 0 0 0 .31.31h9.285a.31.31 0 0 0 .31-.31V3.579a.31.31 0 0 0-.31-.31H8.587zm.31.62h8.665v4.68H8.897V3.89zm6.348.516a1.29 1.29 0 0 0-.942.426l-.334-.334a.31.31 0 0 0-.439 0l-1.725 1.725-.292-.292a.31.31 0 0 0-.438 0L9.478 7.525a.31.31 0 0 0 .22.529.31.31 0 0 0 .219-.091l1.375-1.375.748.748a.31.31 0 1 0 .439-.438l-.237-.237 1.506-1.506.188.188.199.199.637.637.637.637h0l1.132 1.132c.058.058.137.091.219.09a.31.31 0 0 0 .22-.529l-.86-.86c.142-.128.255-.288.329-.468.269-.657-.045-1.409-.702-1.678-.164-.067-.335-.099-.502-.097zm.017.621c.192.001.382.085.513.245.233.285.191.705-.094.938h-.001l-.938-.938V5.27a.67.67 0 0 1 .095-.094c.125-.102.275-.151.425-.15zM4.436 11.122c-.658.001-1.192.534-1.193 1.192v2.631a1.19 1.19 0 0 0-.572-.147H1.192C.534 14.799.001 15.332 0 15.99v5.883c.001.594.435 1.086 1.003 1.177l.137.553c.09.364.417.619.792.618s.701-.254.792-.618l.138-.553a1.19 1.19 0 0 0 .692-.376 1.19 1.19 0 0 0 .883.391h7.911a1.19 1.19 0 0 0 .882-.391 1.19 1.19 0 0 0 .882.391h7.911a1.19 1.19 0 0 0 .883-.391 1.19 1.19 0 0 0 .692.376l.138.553c.09.364.417.619.792.618s.701-.254.792-.618l.137-.553c.568-.091 1.002-.584 1.003-1.177V15.99c-.001-.658-.534-1.191-1.192-1.192h-1.479c-.207 0-.402.053-.572.147v-2.631c-.001-.658-.534-1.191-1.193-1.192h-7.911a1.19 1.19 0 0 0-.882.391 1.19 1.19 0 0 0-.882-.391H4.436zm0 .62l7.911.001c.316 0 .572.256.572.572v4.722c0 .316-.256.572-.572.573H4.436c-.316 0-.572-.257-.573-.573V15.99v-3.676c0-.316.257-.572.573-.573zm9.675 0l7.911.001c.316 0 .572.256.573.572v4.722c0 .316-.257.572-.573.573h-7.911c-.316 0-.572-.257-.572-.573v-4.722c0-.316.256-.572.572-.573zM1.192 15.418h1.479c.316 0 .572.256.572.572v1.045V18.8v3.073c0 .316-.256.572-.572.573H1.192c-.316 0-.572-.257-.572-.573V15.99c0-.316.256-.572.572-.572zm22.595 0h1.479c.316 0 .572.256.572.572v5.883c0 .316-.256.572-.572.573h-1.479c-.316 0-.572-.257-.572-.573V18.8v-2.81c0-.316.256-.572.572-.572zm-19.351 2.81h7.911c.316 0 .572.256.572.572v1.227H3.863V18.8c0-.316.257-.572.573-.572zm9.675 0h7.911c.316 0 .572.256.573.572v1.227h-9.056V18.8c0-.316.256-.572.572-.572zM3.863 20.647h9.056v1.226c0 .316-.256.572-.572.573H4.436c-.316 0-.572-.257-.573-.573v-1.226zm9.676 0h9.056v1.226c0 .316-.257.572-.573.573h-7.911c-.316 0-.572-.257-.572-.573v-1.226zM1.645 23.066h.573l-.097.387c-.018.07-.072.125-.142.143-.105.026-.211-.038-.237-.143l-.097-.387zm22.595 0h.573l-.097.387c-.018.07-.072.125-.143.143-.105.026-.211-.038-.237-.143l-.097-.387z"/></svg>