<svg xmlns="http://www.w3.org/2000/svg" width="30" height="30" viewBox="0 0 7.937 7.937" xmlns:v="https://vecta.io/nano"><defs><clipPath id="A"><path fill="#fff" d="M0 .165h7.938v7.938H0z" stroke-width=".265"/></clipPath></defs><path clip-path="url(#A)" d="M.331.248C.194.248.083.359.083.496s.111.248.248.248h1.12l.288 1.443.005.023.553 2.763a.91.91 0 0 0 .906.732h3.211a.91.91 0 0 0 .907-.732l.529-2.777c.014-.073-.005-.148-.052-.205s-.117-.09-.191-.09H2.188L1.897.448C1.874.332 1.772.248 1.654.248H.331zm1.956 2.15h5.02l-.473 2.478v.001c-.019.095-.071.18-.146.24s-.17.093-.267.091h-.005-3.215-.005c-.097.002-.192-.031-.267-.091s-.127-.146-.146-.241l-.496-2.478zm.674 4.134a.58.58 0 0 0-.564.579.58.58 0 0 0 .579.579.58.58 0 0 0 .579-.579.58.58 0 0 0-.579-.579zm3.638 0a.58.58 0 0 0-.564.579.58.58 0 0 0 .579.579.58.58 0 0 0 .579-.579.58.58 0 0 0-.579-.579zm-3.623.496c.046 0 .083.037.083.083s-.037.083-.083.083-.083-.037-.083-.083.037-.083.083-.083zm3.638 0c.046 0 .083.037.083.083s-.037.083-.083.083-.083-.037-.083-.083.037-.083.083-.083z"/></svg>