<svg xmlns="http://www.w3.org/2000/svg" width="24" height="24" viewBox="0 0 6.35 6.35" xmlns:v="https://vecta.io/nano"><path d="M1.852.33a.73.73 0 0 0-.727.729v4.232a.73.73 0 0 0 .727.729h2.646a.73.73 0 0 0 .727-.729V1.059A.73.73 0 0 0 4.498.33H1.852zm0 .398h2.646c.185 0 .33.145.33.33V5.29c0 .185-.145.332-.33.332H1.852c-.185 0-.33-.147-.33-.332V1.059c0-.185.145-.33.33-.33V.728zm1.324 3.836a.198.198 0 0 0-.199.197.198.198 0 0 0 .199.199h.002a.198.198 0 0 0 .199-.199.198.198 0 0 0-.199-.197h-.002z"/></svg>