<svg xmlns="http://www.w3.org/2000/svg" width="100" height="100" viewBox="0 0 26.458 26.458" xmlns:v="https://vecta.io/nano"><path d="M6.377 2.943c-.658.001-1.191.534-1.192 1.192v4.832a1.19 1.19 0 0 0-.573-.147h-3.42C.534 8.821.001 9.355 0 10.013v10.462c.001.658.534 1.191 1.192 1.192h.376l.25 1c.124.499.572.848 1.085.847s.962-.349 1.085-.847l.25-1h.375a1.19 1.19 0 0 0 .883-.391 1.19 1.19 0 0 0 .882.391h13.704a1.19 1.19 0 0 0 .882-.391h.001a1.19 1.19 0 0 0 .882.391h.375l.25 1c.124.499.572.848 1.085.847s.962-.349 1.085-.847l.25-1h.376c.658-.001 1.191-.534 1.192-1.192V10.013c-.001-.658-.534-1.191-1.192-1.192h-3.42a1.19 1.19 0 0 0-.573.147V4.136c-.001-.658-.534-1.191-1.192-1.192H6.377zm0 .62h13.704c.316 0 .572.256.572.572v8.605c0 .316-.256.572-.572.572H6.377c-.316 0-.572-.256-.573-.572v-2.728-5.877c0-.316.257-.572.573-.572zM1.192 9.441h3.42c.316 0 .572.256.572.572v10.462c0 .316-.256.572-.572.572h-3.42c-.316 0-.572-.256-.572-.572V10.013c0-.316.256-.572.572-.572zm20.654 0h3.42c.316 0 .572.256.572.572v10.462c0 .316-.256.572-.572.572h-3.42c-.316 0-.572-.256-.573-.572v-2.977-4.757-2.728c0-.316.257-.572.573-.572zM6.377 13.933v.001h13.704c.316 0 .572.256.572.572v2.675H5.805v-2.675c0-.316.257-.572.573-.573zM5.805 17.8h14.848v2.675c0 .316-.256.572-.572.572H6.377c-.316 0-.572-.256-.573-.572V17.8zm-3.598 3.867h1.391l-.212.85a.5.5 0 0 1-.363.363.5.5 0 0 1-.604-.363l-.212-.85zm20.653 0h1.391l-.212.85a.5.5 0 0 1-.363.363.5.5 0 0 1-.605-.363l-.212-.85z"/></svg>