<svg xmlns="http://www.w3.org/2000/svg" width="100" height="100" viewBox="0 0 26.458 26.458" xmlns:v="https://vecta.io/nano"><defs><clipPath id="A"><path fill="#fff" d="M0 0h26.458v26.458H0z" stroke-width=".265"/></clipPath></defs><path clip-path="url(#A)" d="M3.708 0a1.13 1.13 0 0 0-1.126 1.126v.24c.001.621.505 1.125 1.126 1.126h.034v5.825c-.647.045-1.159.582-1.16 1.241v13.784a1.24 1.24 0 0 0 .389.902c-.238.206-.389.51-.389.849v.24a1.13 1.13 0 0 0 1.126 1.126H22.75a1.13 1.13 0 0 0 1.126-1.126v-.24c0-.339-.152-.643-.389-.849a1.24 1.24 0 0 0 .389-.902V9.558c-.001-.658-.513-1.196-1.16-1.241V2.492h.034c.621-.001 1.125-.504 1.126-1.126v-.24A1.13 1.13 0 0 0 22.75 0H3.708zm0 .62H22.75c.279 0 .506.227.506.506v.24c0 .279-.227.505-.506.505H3.708c-.279 0-.506-.226-.506-.505v-.24c0-.279.227-.506.506-.506zm.654 1.872h17.734v5.82h-.803V3.605a.31.31 0 0 0-.31-.31H5.475a.31.31 0 0 0-.31.31v.935 3.147.625h-.803v-5.82zM6.41 3.915h5.884c.345 0 .625.28.625.625v3.147c0 .345-.28.624-.625.625H6.41c-.345 0-.624-.28-.625-.625V4.54c0-.345.28-.625.625-.625zm7.754 0h5.884c.345 0 .625.28.625.625v3.147c0 .345-.28.624-.625.625h-5.884c-.345 0-.624-.28-.625-.625V4.54c0-.345.28-.625.625-.625zM3.828 8.932h.224 1.423 16.931.224c.345 0 .624.28.625.625v13.784c0 .345-.28.625-.625.625H3.828c-.345 0-.625-.28-.625-.625V9.558c0-.345.28-.625.625-.625zm-.119 15.654H22.75c.279 0 .506.227.506.506v.24c0 .279-.227.506-.506.506H3.708c-.279 0-.506-.227-.506-.506v-.24c0-.279.227-.506.506-.506z"/></svg>